<svg xmlns="http://www.w3.org/2000/svg" xmlns:xlink="http://www.w3.org/1999/xlink" xmlns:serif="http://www.serif.com/" width="100%" height="100%" viewBox="0 0 500 412" xml:space="preserve" style="fill-rule:evenodd;clip-rule:evenodd;stroke-linejoin:round;stroke-miterlimit:1.41421;"><rect id="Mesa-de-trabajo1" serif:id="Mesa de trabajo1" x="0" y="0" width="500" height="411.273" style="fill:none;"></rect><path d="M19.892,313.539l22.157,0l0,-13.646c0,-2.437 -0.152,-4.044 -0.456,-4.818c-0.235,-0.585 -0.728,-1.091 -1.48,-1.511c-1.008,-0.564 -2.074,-0.844 -3.199,-0.844l-1.687,0l0,-1.303l20.395,0l0,1.303l-1.687,0c-1.124,0 -2.191,0.268 -3.199,0.808c-0.752,0.374 -1.262,0.945 -1.53,1.706c-0.269,0.762 -0.404,2.314 -0.404,4.659l0,30.772c0,2.416 0.152,4.011 0.455,4.785c0.234,0.585 0.715,1.09 1.443,1.511c1.032,0.563 2.111,0.846 3.235,0.846l1.687,0l0,1.301l-20.395,0l0,-1.301l1.687,0c1.947,0 3.366,-0.575 4.255,-1.724c0.586,-0.749 0.88,-2.555 0.88,-5.418l0,-14.523l-22.157,0l0,14.523c0,2.416 0.152,4.011 0.457,4.785c0.234,0.585 0.727,1.09 1.477,1.511c1.008,0.563 2.074,0.846 3.201,0.846l1.724,0l0,1.301l-20.435,0l0,-1.301l1.688,0c1.97,0 3.399,-0.575 4.291,-1.724c0.564,-0.749 0.844,-2.555 0.844,-5.418l0,-30.772c0,-2.437 -0.152,-4.044 -0.454,-4.818c-0.237,-0.585 -0.718,-1.091 -1.444,-1.511c-1.032,-0.564 -2.11,-0.844 -3.237,-0.844l-1.688,0l0,-1.303l20.435,0l0,1.303l-1.724,0c-1.127,0 -2.193,0.268 -3.201,0.808c-0.726,0.374 -1.231,0.945 -1.511,1.706c-0.281,0.762 -0.423,2.314 -0.423,4.659l0,13.646Z" style="fill:#dfc387;fill-rule:nonzero;"></path><path d="M78.496,300.597c-3.559,0 -6.409,1.317 -8.558,3.958c-2.677,3.28 -4.016,8.087 -4.016,14.418c0,6.487 1.388,11.48 4.163,14.975c2.128,2.66 4.942,3.987 8.44,3.987c3.733,0 6.813,-1.455 9.245,-4.366c2.435,-2.911 3.651,-7.505 3.651,-13.776c0,-6.798 -1.339,-11.868 -4.016,-15.212c-2.149,-2.654 -5.12,-3.984 -8.909,-3.984m0.556,-2.14c5.157,0 9.627,1.958 13.409,5.875c3.781,3.919 5.672,8.808 5.672,14.67c0,6.037 -1.906,11.049 -5.716,15.036c-3.81,3.984 -8.423,5.979 -13.834,5.979c-5.471,0 -10.067,-1.946 -13.79,-5.834c-3.721,-3.888 -5.582,-8.919 -5.582,-15.093c0,-6.311 2.149,-11.46 6.447,-15.445c3.731,-3.459 8.196,-5.188 13.394,-5.188" style="fill:#dfc387;fill-rule:nonzero;"></path><path d="M135.177,299.365l0.44,9.321l-1.115,0c-0.215,-1.642 -0.507,-2.815 -0.88,-3.518c-0.606,-1.132 -1.412,-1.968 -2.417,-2.505c-1.008,-0.537 -2.329,-0.805 -3.97,-0.805l-5.599,0l0,30.361c0,2.444 0.263,3.968 0.793,4.572c0.739,0.822 1.883,1.231 3.428,1.231l1.378,0l0,1.085l-16.854,0l0,-1.085l1.407,0c1.681,0 2.873,-0.508 3.576,-1.524c0.428,-0.623 0.643,-2.05 0.643,-4.279l0,-30.361l-4.775,0c-1.856,0 -3.176,0.135 -3.957,0.409c-1.016,0.372 -1.884,1.085 -2.607,2.139c-0.725,1.054 -1.155,2.483 -1.291,4.28l-1.112,0l0.467,-9.321l32.445,0Z" style="fill:#dfc387;fill-rule:nonzero;"></path><path d="M149.655,301.534l0,15.71l8.732,0c2.268,0 3.781,-0.343 4.543,-1.025c1.015,-0.899 1.584,-2.483 1.7,-4.748l1.085,0l0,13.834l-1.085,0c-0.274,-1.937 -0.547,-3.177 -0.822,-3.724c-0.349,-0.684 -0.926,-1.221 -1.727,-1.612c-0.8,-0.392 -2.033,-0.585 -3.694,-0.585l-8.732,0l0,13.099c0,1.76 0.077,2.828 0.234,3.21c0.155,0.38 0.428,0.684 0.822,0.907c0.389,0.227 1.132,0.338 2.224,0.338l6.743,0c2.246,0 3.878,-0.154 4.894,-0.469c1.015,-0.312 1.992,-0.928 2.932,-1.844c1.211,-1.212 2.449,-3.039 3.721,-5.484l1.173,0l-3.431,9.966l-30.627,0l0,-1.085l1.407,0c0.938,0 1.828,-0.223 2.669,-0.675c0.626,-0.309 1.049,-0.779 1.274,-1.405c0.225,-0.626 0.339,-1.905 0.339,-3.839l0,-25.821c0,-2.521 -0.257,-4.073 -0.764,-4.658c-0.704,-0.784 -1.876,-1.173 -3.518,-1.173l-1.407,0l0,-1.086l30.627,0l0.44,8.706l-1.144,0c-0.411,-2.091 -0.863,-3.527 -1.361,-4.31c-0.498,-0.781 -1.235,-1.376 -2.212,-1.787c-0.781,-0.292 -2.161,-0.44 -4.132,-0.44l-10.903,0Z" style="fill:#dfc387;fill-rule:nonzero;"></path><path d="M208.181,328.117l0.967,0.205l-3.399,10.785l-30.772,0l0,-1.085l1.494,0c1.681,0 2.882,-0.547 3.605,-1.642c0.411,-0.624 0.617,-2.069 0.617,-4.335l0,-25.644c0,-2.483 -0.274,-4.035 -0.822,-4.661c-0.762,-0.861 -1.896,-1.289 -3.4,-1.289l-1.494,0l0,-1.085l17.995,0l0,1.085c-2.111,-0.019 -3.59,0.174 -4.441,0.585c-0.849,0.411 -1.432,0.929 -1.746,1.552c-0.312,0.627 -0.467,2.121 -0.467,4.485l0,24.972c0,1.62 0.155,2.735 0.467,3.339c0.237,0.411 0.597,0.713 1.088,0.909c0.488,0.196 2.012,0.293 4.569,0.293l2.902,0c3.048,0 5.188,-0.223 6.421,-0.672c1.228,-0.45 2.352,-1.248 3.368,-2.389c1.015,-1.144 2.033,-2.947 3.048,-5.408" style="fill:#dfc387;fill-rule:nonzero;"></path><path d="M243.287,335.66c2.976,0.658 5.476,0.986 7.492,0.986c5.44,0 9.952,-1.912 13.539,-5.732c3.588,-3.822 5.382,-9.003 5.382,-15.546c0,-6.588 -1.794,-11.783 -5.382,-15.579c-3.587,-3.801 -8.193,-5.698 -13.821,-5.698c-2.111,0 -4.514,0.341 -7.21,1.02l0,40.549Zm-13.611,3.448l0,-1.301l1.794,0c2.016,0 3.447,-0.646 4.291,-1.937c0.517,-0.771 0.774,-2.507 0.774,-5.203l0,-30.81c0,-2.976 -0.329,-4.84 -0.984,-5.592c-0.914,-1.03 -2.275,-1.545 -4.081,-1.545l-1.794,0l0,-1.303l19.414,0c7.129,0 12.55,0.81 16.266,2.427c3.715,1.617 6.704,4.316 8.969,8.09c2.261,3.773 3.392,8.135 3.392,13.082c0,6.636 -2.016,12.182 -6.049,16.635c-4.526,4.971 -11.416,7.457 -20.678,7.457l-21.314,0Z" style="fill:#dfc387;fill-rule:nonzero;"></path><path d="M301.856,300.597c-3.558,0 -6.409,1.317 -8.558,3.958c-2.676,3.28 -4.016,8.087 -4.016,14.418c0,6.487 1.388,11.48 4.163,14.975c2.128,2.66 4.942,3.987 8.44,3.987c3.733,0 6.813,-1.455 9.246,-4.366c2.434,-2.911 3.65,-7.505 3.65,-13.776c0,-6.798 -1.339,-11.868 -4.015,-15.212c-2.15,-2.654 -5.121,-3.984 -8.91,-3.984m0.557,-2.14c5.156,0 9.627,1.958 13.408,5.875c3.781,3.919 5.672,8.808 5.672,14.67c0,6.037 -1.905,11.049 -5.716,15.036c-3.81,3.984 -8.423,5.979 -13.833,5.979c-5.472,0 -10.068,-1.946 -13.791,-5.834c-3.721,-3.888 -5.582,-8.919 -5.582,-15.093c0,-6.311 2.149,-11.46 6.448,-15.445c3.73,-3.459 8.196,-5.188 13.394,-5.188" style="fill:#dfc387;fill-rule:nonzero;"></path><path d="M336.145,318.68c0.37,0 0.694,0.005 0.967,0.014c0.273,0.01 0.498,0.015 0.675,0.015c3.791,0 6.648,-0.82 8.573,-2.461c1.924,-1.642 2.887,-3.733 2.887,-6.274c0,-2.478 -0.777,-4.497 -2.331,-6.052c-1.552,-1.552 -3.61,-2.328 -6.17,-2.328c-1.131,0 -2.667,0.186 -4.601,0.556l0,16.53Zm28.224,20.427l-10.611,0l-13.45,-18.58c-0.996,0.038 -1.808,0.058 -2.434,0.058c-0.254,0 -0.527,-0.005 -0.82,-0.015c-0.292,-0.009 -0.597,-0.024 -0.909,-0.043l0,11.547c0,2.499 0.273,4.054 0.822,4.658c0.74,0.861 1.855,1.289 3.341,1.289l1.553,0l0,1.086l-17.03,0l0,-1.086l1.496,0c1.68,0 2.882,-0.546 3.605,-1.639c0.411,-0.607 0.616,-2.041 0.616,-4.308l0,-25.674c0,-2.502 -0.275,-4.054 -0.822,-4.661c-0.761,-0.858 -1.893,-1.288 -3.399,-1.288l-1.496,0l0,-1.086l14.481,0c4.219,0 7.331,0.309 9.333,0.924c2.001,0.616 3.701,1.75 5.098,3.399c1.398,1.651 2.097,3.619 2.097,5.906c0,2.442 -0.798,4.562 -2.389,6.361c-1.593,1.796 -4.059,3.068 -7.398,3.81l8.203,11.4c1.878,2.618 3.491,4.356 4.838,5.217c1.349,0.861 3.104,1.407 5.275,1.639l0,1.086Z" style="fill:#dfc387;fill-rule:nonzero;"></path><path d="M390.484,323.633l-6.741,-16.061l-6.917,16.061l13.658,0Zm0.819,2.169l-15.386,0l-2.698,6.271c-0.662,1.543 -0.996,2.696 -0.996,3.457c0,0.607 0.288,1.141 0.866,1.598c0.575,0.46 1.822,0.76 3.737,0.895l0,1.083l-12.514,0l0,-1.083c1.659,-0.293 2.735,-0.675 3.223,-1.144c0.996,-0.938 2.101,-2.843 3.312,-5.715l13.979,-32.706l1.025,0l13.834,33.059c1.115,2.657 2.125,4.381 3.034,5.171c0.91,0.793 2.174,1.238 3.796,1.335l0,1.083l-15.678,0l0,-1.083c1.581,-0.08 2.649,-0.341 3.208,-0.791c0.556,-0.449 0.834,-0.998 0.834,-1.641c0,-0.861 -0.392,-2.217 -1.173,-4.074l-2.403,-5.715Z" style="fill:#dfc387;fill-rule:nonzero;"></path><path d="M419.555,336.235c2.48,0.549 4.564,0.819 6.242,0.819c4.533,0 8.295,-1.59 11.286,-4.777c2.988,-3.184 4.482,-7.502 4.482,-12.954c0,-5.49 -1.494,-9.818 -4.482,-12.983c-2.991,-3.164 -6.83,-4.748 -11.52,-4.748c-1.758,0 -3.76,0.285 -6.008,0.851l0,33.792Zm-11.342,2.872l0,-1.085l1.497,0c1.678,0 2.87,-0.537 3.573,-1.611c0.431,-0.645 0.646,-2.091 0.646,-4.337l0,-25.673c0,-2.483 -0.273,-4.035 -0.822,-4.661c-0.759,-0.861 -1.893,-1.289 -3.397,-1.289l-1.497,0l0,-1.086l16.179,0c5.938,0 10.457,0.675 13.554,2.022c3.097,1.349 5.587,3.597 7.473,6.743c1.888,3.145 2.828,6.779 2.828,10.901c0,5.529 -1.68,10.152 -5.04,13.863c-3.77,4.144 -9.514,6.213 -17.233,6.213l-17.761,0Z" style="fill:#dfc387;fill-rule:nonzero;"></path><path d="M471.929,300.597c-3.559,0 -6.41,1.317 -8.559,3.958c-2.676,3.28 -4.016,8.087 -4.016,14.418c0,6.487 1.388,11.48 4.164,14.975c2.127,2.66 4.941,3.987 8.44,3.987c3.733,0 6.813,-1.455 9.245,-4.366c2.434,-2.911 3.651,-7.505 3.651,-13.776c0,-6.798 -1.34,-11.868 -4.016,-15.212c-2.149,-2.654 -5.121,-3.984 -8.909,-3.984m0.556,-2.14c5.157,0 9.627,1.958 13.408,5.875c3.781,3.919 5.672,8.808 5.672,14.67c0,6.037 -1.905,11.049 -5.715,15.036c-3.811,3.984 -8.424,5.979 -13.834,5.979c-5.471,0 -10.067,-1.946 -13.791,-5.834c-3.72,-3.888 -5.582,-8.919 -5.582,-15.093c0,-6.311 2.149,-11.46 6.448,-15.445c3.73,-3.459 8.196,-5.188 13.394,-5.188" style="fill:#dfc387;fill-rule:nonzero;"></path><g opacity="0.800003"><text x="164.544px" y="396.974px" style="font-family:'TimesNewRomanPSMT', 'Times New Roman', serif;font-size:56.326px;fill:#dfc387;">LA</text></g><path d="M251.071,353.874l24.627,0l0,1.286l-15.311,45.597l-3.796,0l13.72,-41.361l-12.637,0c-2.551,0 -4.369,0.304 -5.452,0.914c-1.898,1.039 -3.421,2.642 -4.574,4.811l-0.982,-0.372l4.405,-10.875Z" style="fill:#dfc387;fill-rule:nonzero;"></path><path d="M287.924,377.958c0,6.323 0.779,11.484 2.338,15.481c1.286,3.365 3.206,5.045 5.759,5.045c1.218,0 2.483,-0.544 3.793,-1.639c1.308,-1.097 2.302,-2.93 2.979,-5.507c1.039,-3.883 1.559,-9.359 1.559,-16.428c0,-5.239 -0.541,-9.608 -1.627,-13.109c-0.812,-2.596 -1.861,-4.439 -3.15,-5.522c-0.924,-0.744 -2.043,-1.119 -3.351,-1.119c-1.538,0 -2.904,0.689 -4.1,2.069c-1.627,1.874 -2.735,4.821 -3.32,8.839c-0.587,4.021 -0.88,7.983 -0.88,11.89m-6.639,-0.848c0,-5.237 0.788,-9.748 2.37,-13.529c1.581,-3.784 3.682,-6.603 6.302,-8.453c2.031,-1.47 4.132,-2.202 6.298,-2.202c3.523,0 6.685,1.796 9.485,5.386c3.501,4.449 5.251,10.479 5.251,18.087c0,5.333 -0.766,9.859 -2.301,13.585c-1.538,3.728 -3.496,6.431 -5.88,8.111c-2.382,1.683 -4.678,2.524 -6.891,2.524c-4.383,0 -8.031,-2.584 -10.942,-7.756c-2.461,-4.359 -3.692,-9.61 -3.692,-15.753" style="fill:#dfc387;fill-rule:nonzero;"></path><path d="M433.982,209.929c-19.592,28.255 -49.013,39.248 -82.084,41.499c-16.063,1.095 -32.136,-0.143 -47.877,-4.076c-10.798,-2.698 -17.258,-8.331 -18.205,-20.603c-1.772,-22.92 -1.141,-45.822 -1.245,-68.73c-0.187,-40.225 -0.039,-80.45 -0.022,-120.675c0.01,-18.171 0.616,-18.826 18.8,-19.54c4.414,-0.174 8.846,-0.026 13.268,-0.026c43.196,-0.375 81.814,10.106 110.376,45.619c30.649,38.107 34.71,106.553 6.989,146.532m-180.848,25.301c-0.573,6.174 -0.165,16.082 -6.719,15.92c-7.676,-0.191 -7.26,-10.27 -7.778,-16.878c-2.676,-34.181 -0.863,-68.439 -0.814,-102.661c0,-33.422 -0.196,-66.844 0.171,-100.26c0.07,-6.357 -0.863,-16.397 7.674,-16.545c8.339,-0.142 8.501,9.874 8.621,16.308c0.634,33.421 0.89,66.855 0.762,100.282c-0.133,34.616 1.301,69.276 -1.917,103.834m121.628,-227.5c-62.828,-7.652 -126.144,-0.779 -189.204,-3.054c-2.568,-0.091 -6.468,-0.681 -6.156,3.523c0.211,2.841 3.467,2.589 5.853,2.974c19.25,3.094 21.554,5.314 21.885,24.585c0.389,22.552 -0.089,45.118 0.201,67.673c0.077,6.075 -1.349,8.406 -7.988,8.362c-43.504,-0.297 -87.012,-0.234 -130.518,-0.089c-5.041,0.017 -7.117,-1.221 -7.04,-6.687c0.351,-24.566 0.21,-49.134 0.491,-73.7c0.13,-11.262 3.991,-19.784 17.189,-20.144c2.503,-0.068 5.271,-0.612 4.998,-3.755c-0.293,-3.348 -3.467,-2.831 -5.713,-2.722c-22.937,1.119 -45.866,0.665 -68.802,-0.053c-2.22,-0.068 -5.539,-0.648 -5.812,2.565c-0.343,4.006 3.302,3.585 5.984,4.035c18.591,3.123 20.9,5.333 20.985,24.012c0.271,59.213 0.29,118.429 0.237,177.645c-0.01,10.046 -0.208,20.139 -2.44,30.044c-1.436,6.364 -3.957,11.298 -11.633,11.605c-3.228,0.131 -8.489,-0.394 -7.807,4.693c0.546,4.076 5.37,2.548 8.266,2.372c21.744,-1.308 43.472,-0.564 65.212,0c3.367,0.089 7.248,1.281 10.669,-2.749c-2.05,-4.072 -5.423,-3.842 -8.576,-4.178c-18.761,-2.007 -19.878,-2.599 -21.72,-21.735c-3.206,-33.339 -0.708,-66.812 -1.518,-100.214c-0.155,-6.347 2.886,-7.195 8.113,-7.183c43.102,0.121 86.207,0.191 129.309,-0.063c6.547,-0.039 8.247,2.292 8.078,8.421c-0.358,12.879 0.118,25.782 -0.112,38.668c-0.401,22.515 1.386,45.094 -2.018,67.537c-1.282,8.452 -4.384,14.596 -14.238,14.654c-2.73,0.017 -6.564,0.379 -6.535,3.832c0.034,4.083 4.103,2.77 6.646,2.952c2.802,0.195 5.633,-0.119 8.452,-0.102c30.937,0.162 61.907,-0.452 92.8,0.798c21.316,0.863 42.606,2.461 63.95,1.854c60.782,-1.731 107.1,-37.319 122.546,-96.075c19.653,-74.752 -15.85,-149.559 -104.034,-160.301" style="fill:#dfc387;fill-rule:nonzero;"></path></svg>